<svg xmlns="http://www.w3.org/2000/svg" width="36" height="36" viewBox="0 0 36 36"><g><g><g/><g><g><g><path fill="#212121" d="M5 18c0-7.18 5.597-13 12.5-13C24.404 5 30 10.82 30 18s-5.596 13-12.5 13C10.597 31 5 25.18 5 18z"/></g><g><g><path fill="#fff" d="M17.906 5C10.78 5 5 10.778 5 17.906c0 5.47 3.4 10.144 8.2 12.025-.116-1.02-.212-2.592.043-3.708.234-1.009 1.508-6.416 1.508-6.416s-.382-.775-.382-1.912c0-1.795 1.041-3.133 2.337-3.133 1.105 0 1.636.828 1.636 1.816 0 1.105-.701 2.762-1.073 4.302-.308 1.286.648 2.337 1.912 2.337 2.294 0 4.058-2.422 4.058-5.906 0-3.091-2.22-5.247-5.396-5.247-3.676 0-5.832 2.75-5.832 5.598 0 1.104.425 2.294.956 2.942a.384.384 0 0 1 .085.372c-.096.404-.319 1.285-.361 1.466-.053.234-.191.287-.436.17-1.614-.754-2.624-3.102-2.624-5.003 0-4.069 2.953-7.808 8.53-7.808 4.472 0 7.957 3.187 7.957 7.457 0 4.45-2.805 8.03-6.693 8.03-1.306 0-2.538-.68-2.953-1.486l-.807 3.07c-.287 1.125-1.073 2.528-1.604 3.388 1.211.372 2.486.574 3.824.574 7.128 0 12.906-5.779 12.906-12.907C30.813 10.778 25.034 5 17.906 5z"/></g></g></g></g></g></g></svg>