<svg xmlns="http://www.w3.org/2000/svg" width="36" height="36" viewBox="0 0 36 36"><g><g><g/><g><g><path fill="#fff" d="M30.625 18.343c0-6.883-5.58-12.463-12.462-12.463-6.883 0-12.462 5.58-12.462 12.463 0 6.22 4.557 11.376 10.515 12.31v-8.708h-3.164v-3.602h3.164v-2.746c0-3.123 1.86-4.849 4.707-4.849 1.364 0 2.79.244 2.79.244v3.067H22.14c-1.548 0-2.03.96-2.03 1.946v2.338h3.456l-.553 3.602H20.11v8.708c5.958-.934 10.515-6.09 10.515-12.31z"/></g><g><path fill="#212121" d="M23.014 21.945l.553-3.602H20.11v-2.338c0-.986.483-1.946 2.031-1.946h1.572v-3.067s-1.426-.244-2.79-.244c-2.847 0-4.707 1.726-4.707 4.849v2.746h-3.164v3.602h3.164v8.708a12.556 12.556 0 0 0 3.894 0v-8.708z"/></g></g></g></g></svg>