<svg xmlns="http://www.w3.org/2000/svg" width="36" height="36" viewBox="0 0 36 36"><g><g><g/><g><g><path fill="#fff" d="M31.642 10.968a3.618 3.618 0 0 0-2.554-2.554c-2.252-.604-11.284-.604-11.284-.604s-9.033 0-11.285.604a3.618 3.618 0 0 0-2.554 2.554c-.603 2.252-.603 6.952-.603 6.952s0 4.7.603 6.952a3.617 3.617 0 0 0 2.554 2.554c2.252.603 11.284.603 11.284.603s9.033 0 11.285-.603a3.617 3.617 0 0 0 2.554-2.554c.603-2.252.603-6.952.603-6.952s0-4.7-.603-6.952z"/></g><g><path fill="#212121" d="M14.915 22.253l7.504-4.333-7.504-4.333z"/></g></g></g></g></svg>